<svg xmlns="http://www.w3.org/2000/svg" viewBox="0 0 235.1 120.04"><g id="Layer_1" data-name="Layer 1"><path d="M44.41,49.78h7V67h.25c1.46-1.38,2.91-2.65,4.29-3.82L72.68,49.78h8.75L61.66,64.94,83,85.5H74.62L56.64,68l-5.19,3.92V85.5h-7Z" transform="translate(-0.88 -2.29)" style="stroke:#000"/><path d="M119.1,75.73c0,3.43-.76,5.57-2.26,6.42s-5.29,1.28-11.39,1.28q-8.42,0-10.57-1.3t-2.15-6.4V50.61H87.48V76.94c0,3.85,1.28,6.47,3.84,7.84s7.39,2.06,14.51,2.06q11.39,0,15-2.14c2.38-1.42,3.57-4.42,3.57-9V50.61H119.1Z" transform="translate(-0.88 -2.29)" style="stroke:#000;stroke-width:1.5329100000000002px"/><path d="M138.43,54h17q5.33,0,6.94,1.47T164,61.83q0,3.89-2.18,5.3c-1.46.93-4.18,1.4-8.19,1.4H138.43Zm0,32.45V72H156q7,0,7.05,6.28v8.25h5.26V77.31q0-6.53-7.4-6.94v-.08c3.13-.38,5.26-1.23,6.37-2.53S169,64.14,169,60.83c0-3.76-1-6.41-3.06-7.93s-5.57-2.29-10.58-2.29H133.18V86.48Z" transform="translate(-0.88 -2.29)" style="stroke:#000;stroke-width:1.5329100000000002px"/><path d="M183.24,75.83l10.2-21.91,10.33,21.91Zm25.68,10.65h5.49L197,50.61h-7.37L172.6,86.48h5.56l3.58-7.6H205.3Z" transform="translate(-0.88 -2.29)" style="stroke:#000;stroke-width:1.5329100000000002px"/></g><g id="Layer_6" data-name="Layer 6"><path d="M16.21,122.09H14.36v-6.85l-8.18,0v6.84H4.33l0-15H6.16v6.58h8.17v-6.58h1.85Z" transform="translate(-0.88 -2.29)" style="fill:#bababb"/><path d="M26.72,122.33a7.12,7.12,0,0,1-5.38-2.1,7.6,7.6,0,0,1-2-5.47A8,8,0,0,1,21.36,109a7.39,7.39,0,0,1,5.6-2.17,7,7,0,0,1,5.28,2.09,7.65,7.65,0,0,1,2,5.47,8.06,8.06,0,0,1-2,5.81A7.27,7.27,0,0,1,26.72,122.33Zm.11-13.92a5.19,5.19,0,0,0-4,1.71,7.26,7.26,0,0,0,0,8.94,5,5,0,0,0,3.95,1.69,5.35,5.35,0,0,0,4.1-1.62,6.43,6.43,0,0,0,1.49-4.52A6.69,6.69,0,0,0,30.85,110,5.1,5.1,0,0,0,26.83,108.41Z" transform="translate(-0.88 -2.29)" style="fill:#bababb"/><path d="M53.48,122H51.64l0-10.07c0-.79.05-1.77.15-2.92h0a9.08,9.08,0,0,1-.48,1.46L45.88,122H45L39.56,110.6a9,9,0,0,1-.47-1.53H39c.06.6.09,1.58.1,2.94v10H37.37l0-15h2.45l4.87,10.46a15,15,0,0,1,.73,1.8h.06c.32-.82.57-1.44.76-1.84L51.14,107h2.31Z" transform="translate(-0.88 -2.29)" style="fill:#bababb"/><path d="M66,122H57.63l0-15h8v1.59H59.46v5h5.71v1.59H59.47v5.26H66Z" transform="translate(-0.88 -2.29)" style="fill:#bababb"/><path d="M97.53,122H95.69l0-10.07c0-.8,0-1.77.15-2.92h0a8.46,8.46,0,0,1-.47,1.45L89.92,122H89l-5.41-11.44a9,9,0,0,1-.48-1.54h0q.09.9.09,2.94l0,10H81.41l0-15h2.44l4.87,10.46a12.19,12.19,0,0,1,.73,1.8h.07c.31-.83.56-1.44.76-1.85L95.19,107H97.5Z" transform="translate(-0.88 -2.29)" style="fill:#bababb"/><path d="M113.91,121.93h-2l-1.68-4.2h-6.7L101.91,122H99.85l6-15h1.91Zm-4.34-5.78-2.49-6.4a5.86,5.86,0,0,1-.24-1h0a4.65,4.65,0,0,1-.25,1l-2.45,6.41Z" transform="translate(-0.88 -2.29)" style="fill:#bababb"/><path d="M119.61,106.91v1.5h-1.54l0,12h1.54v1.51h-4.94v-1.51h1.55l0-12h-1.54v-1.5Z" transform="translate(-0.88 -2.29)" style="fill:#bababb"/><path d="M135,121.89h-2.27l-8.15-12a4.52,4.52,0,0,1-.51-.94H124a15.47,15.47,0,0,1,.1,2.06v10.85h-1.85l0-15h2.4l7.93,11.76c.33.49.55.82.64,1h.05a13.72,13.72,0,0,1-.12-2.2l0-10.58H135Z" transform="translate(-0.88 -2.29)" style="fill:#bababb"/><path d="M148.45,108.45h-4.57l0,13.42h-1.85l0-13.42h-4.55v-1.59l11,0Z" transform="translate(-0.88 -2.29)" style="fill:#bababb"/><path d="M159.33,121.85H151l0-15h8v1.59h-6.17v5h5.71V115h-5.71v5.26h6.52Z" transform="translate(-0.88 -2.29)" style="fill:#bababb"/><path d="M175.11,121.82h-2.27l-8.16-12a5.79,5.79,0,0,1-.51-.95h-.06a14.45,14.45,0,0,1,.09,2.07l0,10.84h-1.85l0-15h2.4l7.94,11.76c.33.49.54.82.64,1h0a15.72,15.72,0,0,1-.11-2.21l0-10.58h1.85Z" transform="translate(-0.88 -2.29)" style="fill:#bababb"/><path d="M191.48,121.79h-2l-1.68-4.21h-6.7l-1.57,4.21h-2.06l6-15h1.91ZM187.14,116l-2.49-6.39a5.86,5.86,0,0,1-.24-1h0a4.81,4.81,0,0,1-.25,1l-2.45,6.4Z" transform="translate(-0.88 -2.29)" style="fill:#bababb"/><path d="M206.54,121.77h-2.26l-8.16-12a5.7,5.7,0,0,1-.51-.94h-.06a14.38,14.38,0,0,1,.09,2.06l0,10.85h-1.85l0-15h2.4l7.94,11.77c.33.49.54.82.64,1h0a15.62,15.62,0,0,1-.11-2.21l0-10.57h1.85Z" transform="translate(-0.88 -2.29)" style="fill:#bababb"/><path d="M221.44,121.11a9.59,9.59,0,0,1-4.36.89,7.24,7.24,0,0,1-5.4-2,7.35,7.35,0,0,1-2-5.41,7.75,7.75,0,0,1,2.27-5.82,7.92,7.92,0,0,1,5.78-2.23,9.61,9.61,0,0,1,3.73.61V109a7.86,7.86,0,0,0-3.75-.89,5.91,5.91,0,0,0-4.41,1.73,6.37,6.37,0,0,0-1.68,4.62,6,6,0,0,0,1.59,4.37,5.55,5.55,0,0,0,4.15,1.62,8.09,8.09,0,0,0,4.12-1Z" transform="translate(-0.88 -2.29)" style="fill:#bababb"/><path d="M233,121.72l-8.38,0,0-15,8,0v1.59h-6.17v5h5.71v1.58H226.5v5.25H233Z" transform="translate(-0.88 -2.29)" style="fill:#bababb"/></g><g id="Layer_3" data-name="Layer 3"><polyline points="3.99 30.25 16.04 29.74 28.05 29.11 40.05 28.4 52.06 27.59 64.06 26.68 76.03 25.7 88.02 24.61 99.96 23.45 111.93 22.17 123.87 20.81 135.79 19.36 147.71 17.82 159.61 16.17 171.5 14.46 183.35 12.63 195.22 10.73 207.04 8.72 218.86 6.63 230.63 4.46" style="fill:#bababb;stroke:#6d5753;stroke-linecap:square;stroke-linejoin:round;stroke-width:7.664560000000001px"/></g><g id="Layer_4" data-name="Layer 4"><line x1="26.22" y1="93.25" x2="26.22" y2="41.5" style="fill:#bababb;stroke:#bababb;stroke-linecap:square;stroke-linejoin:round;stroke-width:13.4223px"/></g><g id="Layer_5" data-name="Layer 5"><line x1="2.84" y1="99.55" x2="230.87" y2="99.55" style="fill:#bababb;stroke:#2aa449;stroke-linecap:square;stroke-linejoin:round;stroke-width:3.8322900000000004px"/></g></svg>